<svg xmlns="http://www.w3.org/2000/svg" version="1.1" xmlns:xlink="http://www.w3.org/1999/xlink" xmlns:svgjs="http://svgjs.dev/svgjs" width="1440" height="560" preserveAspectRatio="none" viewBox="0 0 1440 560"><g mask="url(&quot;#SvgjsMask1022&quot;)" fill="none"><rect width="1440" height="560" x="0" y="0" fill="#0e2a47"></rect><path d="M54 317L53 -31" stroke-width="8" stroke="url(&quot;#SvgjsLinearGradient1023&quot;)" stroke-linecap="round" class="Down"></path><path d="M558 234L557 -162" stroke-width="6" stroke="url(&quot;#SvgjsLinearGradient1024&quot;)" stroke-linecap="round" class="Up"></path><path d="M128 484L127 787" stroke-width="8" stroke="url(&quot;#SvgjsLinearGradient1024&quot;)" stroke-linecap="round" class="Up"></path><path d="M1238 492L1237 815" stroke-width="8" stroke="url(&quot;#SvgjsLinearGradient1024&quot;)" stroke-linecap="round" class="Up"></path><path d="M936 533L935 278" stroke-width="10" stroke="url(&quot;#SvgjsLinearGradient1024&quot;)" stroke-linecap="round" class="Up"></path><path d="M355 467L354 668" stroke-width="10" stroke="url(&quot;#SvgjsLinearGradient1024&quot;)" stroke-linecap="round" class="Up"></path><path d="M1213 493L1212 232" stroke-width="8" stroke="url(&quot;#SvgjsLinearGradient1024&quot;)" stroke-linecap="round" class="Up"></path><path d="M886 535L885 782" stroke-width="10" stroke="url(&quot;#SvgjsLinearGradient1023&quot;)" stroke-linecap="round" class="Down"></path><path d="M834 553L833 296" stroke-width="6" stroke="url(&quot;#SvgjsLinearGradient1024&quot;)" stroke-linecap="round" class="Up"></path><path d="M922 130L921 -288" stroke-width="6" stroke="url(&quot;#SvgjsLinearGradient1024&quot;)" stroke-linecap="round" class="Up"></path><path d="M313 40L312 302" stroke-width="10" stroke="url(&quot;#SvgjsLinearGradient1023&quot;)" stroke-linecap="round" class="Down"></path><path d="M509 514L508 658" stroke-width="6" stroke="url(&quot;#SvgjsLinearGradient1023&quot;)" stroke-linecap="round" class="Down"></path><path d="M1385 557L1384 724" stroke-width="10" stroke="url(&quot;#SvgjsLinearGradient1023&quot;)" stroke-linecap="round" class="Down"></path><path d="M1378 424L1377 46" stroke-width="6" stroke="url(&quot;#SvgjsLinearGradient1023&quot;)" stroke-linecap="round" class="Down"></path><path d="M159 550L158 402" stroke-width="10" stroke="url(&quot;#SvgjsLinearGradient1024&quot;)" stroke-linecap="round" class="Up"></path><path d="M772 45L771 322" stroke-width="10" stroke="url(&quot;#SvgjsLinearGradient1023&quot;)" stroke-linecap="round" class="Down"></path><path d="M1133 480L1132 93" stroke-width="6" stroke="url(&quot;#SvgjsLinearGradient1023&quot;)" stroke-linecap="round" class="Down"></path><path d="M1275 93L1274 -305" stroke-width="10" stroke="url(&quot;#SvgjsLinearGradient1024&quot;)" stroke-linecap="round" class="Up"></path><path d="M469 119L468 281" stroke-width="10" stroke="url(&quot;#SvgjsLinearGradient1023&quot;)" stroke-linecap="round" class="Down"></path><path d="M1191 405L1190 584" stroke-width="10" stroke="url(&quot;#SvgjsLinearGradient1024&quot;)" stroke-linecap="round" class="Up"></path><path d="M1051 155L1050 423" stroke-width="6" stroke="url(&quot;#SvgjsLinearGradient1024&quot;)" stroke-linecap="round" class="Up"></path><path d="M429 49L428 -191" stroke-width="10" stroke="url(&quot;#SvgjsLinearGradient1023&quot;)" stroke-linecap="round" class="Down"></path><path d="M1389 552L1388 745" stroke-width="8" stroke="url(&quot;#SvgjsLinearGradient1024&quot;)" stroke-linecap="round" class="Up"></path><path d="M1375 251L1374 666" stroke-width="6" stroke="url(&quot;#SvgjsLinearGradient1023&quot;)" stroke-linecap="round" class="Down"></path><path d="M844 398L843 795" stroke-width="6" stroke="url(&quot;#SvgjsLinearGradient1023&quot;)" stroke-linecap="round" class="Down"></path><path d="M1054 389L1053 134" stroke-width="10" stroke="url(&quot;#SvgjsLinearGradient1023&quot;)" stroke-linecap="round" class="Down"></path><path d="M182 409L181 685" stroke-width="6" stroke="url(&quot;#SvgjsLinearGradient1023&quot;)" stroke-linecap="round" class="Down"></path><path d="M550 28L549 399" stroke-width="10" stroke="url(&quot;#SvgjsLinearGradient1023&quot;)" stroke-linecap="round" class="Down"></path><path d="M1182 372L1181 76" stroke-width="6" stroke="url(&quot;#SvgjsLinearGradient1024&quot;)" stroke-linecap="round" class="Up"></path><path d="M267 558L266 862" stroke-width="6" stroke="url(&quot;#SvgjsLinearGradient1024&quot;)" stroke-linecap="round" class="Up"></path><path d="M592 162L591 -209" stroke-width="10" stroke="url(&quot;#SvgjsLinearGradient1024&quot;)" stroke-linecap="round" class="Up"></path><path d="M422 60L421 252" stroke-width="6" stroke="url(&quot;#SvgjsLinearGradient1023&quot;)" stroke-linecap="round" class="Down"></path><path d="M665 328L664 585" stroke-width="8" stroke="url(&quot;#SvgjsLinearGradient1024&quot;)" stroke-linecap="round" class="Up"></path><path d="M991 491L990 763" stroke-width="10" stroke="url(&quot;#SvgjsLinearGradient1024&quot;)" stroke-linecap="round" class="Up"></path><path d="M797 338L796 -70" stroke-width="8" stroke="url(&quot;#SvgjsLinearGradient1024&quot;)" stroke-linecap="round" class="Up"></path><path d="M1216 94L1215 474" stroke-width="10" stroke="url(&quot;#SvgjsLinearGradient1024&quot;)" stroke-linecap="round" class="Up"></path></g><defs><mask id="SvgjsMask1022"><rect width="1440" height="560" fill="#ffffff"></rect></mask><linearGradient x1="0%" y1="0%" x2="0%" y2="100%" id="SvgjsLinearGradient1023"><stop stop-color="rgba(38, 109, 13, 0)" offset="0"></stop><stop stop-color="rgba(38, 109, 13, 1)" offset="1"></stop></linearGradient><linearGradient x1="0%" y1="100%" x2="0%" y2="0%" id="SvgjsLinearGradient1024"><stop stop-color="rgba(38, 109, 13, 0)" offset="0"></stop><stop stop-color="rgba(38, 109, 13, 1)" offset="1"></stop></linearGradient></defs></svg>